<svg width="70" height="70" viewBox="0 0 70 70" fill="none" xmlns="http://www.w3.org/2000/svg">
<path fill-rule="evenodd" clip-rule="evenodd" d="M35 70C54.33 70 70 54.33 70 35C70 15.67 54.33 0 35 0C15.67 0 0 15.67 0 35C0 54.33 15.67 70 35 70ZM20.7753 22.5C23.8558 22.5 26.485 22.9687 28.663 23.9061L27.7254 32.6461C27.0849 31.4595 26.0886 30.5763 24.7367 29.9967C23.3722 29.4022 21.9747 29.105 20.5442 29.105C18.4314 29.105 16.8579 29.6664 15.8235 30.7893C14.7891 31.8901 14.2719 33.2552 14.2719 34.8844C14.2719 36.6458 14.8221 38.0879 15.9225 39.2107C17.0449 40.3115 18.7505 40.862 21.0394 40.862H26.844L26.1319 47.5H20.7753C15.8015 47.5 12.1371 46.4432 9.78228 44.3296C7.42743 42.216 6.25 39.1997 6.25 35.2807C6.25 31.3397 7.42743 28.2244 9.78228 25.9346C12.1371 23.6449 15.8015 22.5 20.7753 22.5ZM63.4412 47.5L60.8662 23.6102H49.18L46.6711 39.2311L43.799 23.6102H32.5749L30 47.5H38.5501L39.0453 30.6116L42.4125 47.5H51.0617L54.3629 30.4795L54.891 47.5H63.4412Z" fill="black"/>
</svg>
